<?xml version='1.0' encoding='UTF-8'?>
<svg width="25mm" height="25mm" version="1.1" viewBox="0 0 25 25" xmlns="http://www.w3.org/2000/svg"><path d="M0,0H1V1H0zM1,0H2V1H1zM2,0H3V1H2zM3,0H4V1H3zM4,0H5V1H4zM5,0H6V1H5zM6,0H7V1H6zM8,0H9V1H8zM11,0H12V1H11zM12,0H13V1H12zM13,0H14V1H13zM14,0H15V1H14zM15,0H16V1H15zM16,0H17V1H16zM18,0H19V1H18zM19,0H20V1H19zM20,0H21V1H20zM21,0H22V1H21zM22,0H23V1H22zM23,0H24V1H23zM24,0H25V1H24zM0,1H1V2H0zM6,1H7V2H6zM9,1H10V2H9zM10,1H11V2H10zM12,1H13V2H12zM13,1H14V2H13zM14,1H15V2H14zM16,1H17V2H16zM18,1H19V2H18zM24,1H25V2H24zM0,2H1V3H0zM2,2H3V3H2zM3,2H4V3H3zM4,2H5V3H4zM6,2H7V3H6zM10,2H11V3H10zM11,2H12V3H11zM14,2H15V3H14zM15,2H16V3H15zM16,2H17V3H16zM18,2H19V3H18zM20,2H21V3H20zM21,2H22V3H21zM22,2H23V3H22zM24,2H25V3H24zM0,3H1V4H0zM2,3H3V4H2zM3,3H4V4H3zM4,3H5V4H4zM6,3H7V4H6zM8,3H9V4H8zM9,3H10V4H9zM11,3H12V4H11zM13,3H14V4H13zM14,3H15V4H14zM16,3H17V4H16zM18,3H19V4H18zM20,3H21V4H20zM21,3H22V4H21zM22,3H23V4H22zM24,3H25V4H24zM0,4H1V5H0zM2,4H3V5H2zM3,4H4V5H3zM4,4H5V5H4zM6,4H7V5H6zM8,4H9V5H8zM9,4H10V5H9zM11,4H12V5H11zM12,4H13V5H12zM14,4H15V5H14zM15,4H16V5H15zM16,4H17V5H16zM18,4H19V5H18zM20,4H21V5H20zM21,4H22V5H21zM22,4H23V5H22zM24,4H25V5H24zM0,5H1V6H0zM6,5H7V6H6zM8,5H9V6H8zM9,5H10V6H9zM10,5H11V6H10zM13,5H14V6H13zM18,5H19V6H18zM24,5H25V6H24zM0,6H1V7H0zM1,6H2V7H1zM2,6H3V7H2zM3,6H4V7H3zM4,6H5V7H4zM5,6H6V7H5zM6,6H7V7H6zM8,6H9V7H8zM10,6H11V7H10zM12,6H13V7H12zM14,6H15V7H14zM16,6H17V7H16zM18,6H19V7H18zM19,6H20V7H19zM20,6H21V7H20zM21,6H22V7H21zM22,6H23V7H22zM23,6H24V7H23zM24,6H25V7H24zM8,7H9V8H8zM9,7H10V8H9zM11,7H12V8H11zM12,7H13V8H12zM0,8H1V9H0zM4,8H5V9H4zM6,8H7V9H6zM7,8H8V9H7zM8,8H9V9H8zM9,8H10V9H9zM10,8H11V9H10zM11,8H12V9H11zM12,8H13V9H12zM14,8H15V9H14zM16,8H17V9H16zM17,8H18V9H17zM18,8H19V9H18zM19,8H20V9H19zM20,8H21V9H20zM21,8H22V9H21zM24,8H25V9H24zM0,9H1V10H0zM1,9H2V10H1zM2,9H3V10H2zM3,9H4V10H3zM4,9H5V10H4zM5,9H6V10H5zM10,9H11V10H10zM12,9H13V10H12zM14,9H15V10H14zM15,9H16V10H15zM16,9H17V10H16zM17,9H18V10H17zM20,9H21V10H20zM21,9H22V10H21zM23,9H24V10H23zM2,10H3V11H2zM4,10H5V11H4zM6,10H7V11H6zM7,10H8V11H7zM8,10H9V11H8zM9,10H10V11H9zM10,10H11V11H10zM11,10H12V11H11zM12,10H13V11H12zM13,10H14V11H13zM14,10H15V11H14zM15,10H16V11H15zM19,10H20V11H19zM20,10H21V11H20zM21,10H22V11H21zM22,10H23V11H22zM0,11H1V12H0zM3,11H4V12H3zM4,11H5V12H4zM11,11H12V12H11zM12,11H13V12H12zM16,11H17V12H16zM18,11H19V12H18zM19,11H20V12H19zM22,11H23V12H22zM23,11H24V12H23zM1,12H2V13H1zM2,12H3V13H2zM3,12H4V13H3zM4,12H5V13H4zM5,12H6V13H5zM6,12H7V13H6zM8,12H9V13H8zM10,12H11V13H10zM11,12H12V13H11zM12,12H13V13H12zM15,12H16V13H15zM17,12H18V13H17zM18,12H19V13H18zM21,12H22V13H21zM22,12H23V13H22zM23,12H24V13H23zM24,12H25V13H24zM0,13H1V14H0zM1,13H2V14H1zM2,13H3V14H2zM3,13H4V14H3zM4,13H5V14H4zM5,13H6V14H5zM7,13H8V14H7zM12,13H13V14H12zM13,13H14V14H13zM14,13H15V14H14zM15,13H16V14H15zM16,13H17V14H16zM17,13H18V14H17zM20,13H21V14H20zM23,13H24V14H23zM2,14H3V15H2zM4,14H5V15H4zM5,14H6V15H5zM6,14H7V15H6zM7,14H8V15H7zM9,14H10V15H9zM11,14H12V15H11zM12,14H13V15H12zM13,14H14V15H13zM15,14H16V15H15zM16,14H17V15H16zM19,14H20V15H19zM20,14H21V15H20zM21,14H22V15H21zM22,14H23V15H22zM2,15H3V16H2zM3,15H4V16H3zM4,15H5V16H4zM5,15H6V16H5zM8,15H9V16H8zM10,15H11V16H10zM12,15H13V16H12zM14,15H15V16H14zM18,15H19V16H18zM19,15H20V16H19zM20,15H21V16H20zM22,15H23V16H22zM23,15H24V16H23zM0,16H1V17H0zM1,16H2V17H1zM5,16H6V17H5zM6,16H7V17H6zM10,16H11V17H10zM11,16H12V17H11zM12,16H13V17H12zM15,16H16V17H15zM16,16H17V17H16zM17,16H18V17H17zM18,16H19V17H18zM19,16H20V17H19zM20,16H21V17H20zM21,16H22V17H21zM22,16H23V17H22zM8,17H9V18H8zM10,17H11V18H10zM11,17H12V18H11zM12,17H13V18H12zM14,17H15V18H14zM16,17H17V18H16zM20,17H21V18H20zM0,18H1V19H0zM1,18H2V19H1zM2,18H3V19H2zM3,18H4V19H3zM4,18H5V19H4zM5,18H6V19H5zM6,18H7V19H6zM8,18H9V19H8zM9,18H10V19H9zM11,18H12V19H11zM12,18H13V19H12zM13,18H14V19H13zM14,18H15V19H14zM16,18H17V19H16zM18,18H19V19H18zM20,18H21V19H20zM0,19H1V20H0zM6,19H7V20H6zM10,19H11V20H10zM14,19H15V20H14zM16,19H17V20H16zM20,19H21V20H20zM21,19H22V20H21zM22,19H23V20H22zM23,19H24V20H23zM24,19H25V20H24zM0,20H1V21H0zM2,20H3V21H2zM3,20H4V21H3zM4,20H5V21H4zM6,20H7V21H6zM8,20H9V21H8zM9,20H10V21H9zM11,20H12V21H11zM12,20H13V21H12zM14,20H15V21H14zM16,20H17V21H16zM17,20H18V21H17zM18,20H19V21H18zM19,20H20V21H19zM20,20H21V21H20zM21,20H22V21H21zM22,20H23V21H22zM0,21H1V22H0zM2,21H3V22H2zM3,21H4V22H3zM4,21H5V22H4zM6,21H7V22H6zM10,21H11V22H10zM11,21H12V22H11zM14,21H15V22H14zM15,21H16V22H15zM18,21H19V22H18zM19,21H20V22H19zM22,21H23V22H22zM23,21H24V22H23zM24,21H25V22H24zM0,22H1V23H0zM2,22H3V23H2zM3,22H4V23H3zM4,22H5V23H4zM6,22H7V23H6zM11,22H12V23H11zM12,22H13V23H12zM13,22H14V23H13zM14,22H15V23H14zM15,22H16V23H15zM17,22H18V23H17zM18,22H19V23H18zM21,22H22V23H21zM23,22H24V23H23zM0,23H1V24H0zM6,23H7V24H6zM11,23H12V24H11zM12,23H13V24H12zM15,23H16V24H15zM18,23H19V24H18zM19,23H20V24H19zM20,23H21V24H20zM21,23H22V24H21zM22,23H23V24H22zM23,23H24V24H23zM0,24H1V25H0zM1,24H2V25H1zM2,24H3V25H2zM3,24H4V25H3zM4,24H5V25H4zM5,24H6V25H5zM6,24H7V25H6zM8,24H9V25H8zM9,24H10V25H9zM10,24H11V25H10zM15,24H16V25H15zM22,24H23V25H22zM23,24H24V25H23zM24,24H25V25H24z" id="qr-path"  fill-opacity="1" fill-rule="nonzero" stroke="none"/></svg>